<svg width="15" height="18" viewBox="0 0 15 18" fill="none" xmlns="http://www.w3.org/2000/svg">
<path d="M0.748932 7.04268C0.047631 7.48366 -0.206346 8.43451 0.181659 9.16646C0.569664 9.8984 1.45272 10.1343 2.15402 9.69328L1.45148 8.36798L0.748932 7.04268ZM1.45148 8.36798L2.15402 9.69328L13.354 2.6506L12.6515 1.3253L11.9489 -5.11675e-06L0.748932 7.04268L1.45148 8.36798Z" fill="#7AE3B6"/>
<path d="M2.15402 7.04268C1.45272 6.60169 0.569664 6.83756 0.181659 7.56951C-0.206346 8.30145 0.0476311 9.2523 0.748932 9.69328L1.45148 8.36798L2.15402 7.04268ZM11.4156 16.4006L12.6854 17.1991L14.0905 14.5485L12.8207 13.75L12.1181 15.0753L11.4156 16.4006ZM1.45148 8.36798L0.748932 9.69328L11.4156 16.4006L12.1181 15.0753L12.8207 13.75L2.15402 7.04268L1.45148 8.36798Z" fill="#7AE3B6"/>
</svg>
