<svg width="43" height="45" viewBox="0 0 43 45" fill="none" xmlns="http://www.w3.org/2000/svg">
<path d="M8.43749 28.125H11.25C12.8039 28.125 14.0625 26.8649 14.0625 25.3124V22.5C14.0625 20.9461 12.8039 19.6875 11.25 19.6875H8.43749C6.88358 19.6875 5.62499 20.9461 5.62499 22.5V25.3124C5.62499 26.8649 6.88358 28.125 8.43749 28.125ZM8.43749 22.5H11.25V25.3124H8.43749V22.5ZM30.9375 39.3749H33.7499C35.3038 39.3749 36.5625 38.1163 36.5625 36.5624V33.75C36.5625 32.1961 35.3038 30.9375 33.7499 30.9375H30.9375C29.385 30.9375 28.125 32.1961 28.125 33.75V36.5624C28.125 38.1163 29.3835 39.3749 30.9375 39.3749ZM30.9375 33.75H33.7499V36.5624H30.9375V33.75ZM30.9375 28.125H33.7499C35.3038 28.125 36.5625 26.8649 36.5625 25.3124V22.5C36.5625 20.9461 35.3038 19.6875 33.7499 19.6875H30.9375C29.385 19.6875 28.125 20.9461 28.125 22.5V25.3124C28.125 26.8649 29.3835 28.125 30.9375 28.125ZM30.9375 22.5H33.7499V25.3124H30.9375V22.5ZM36.5625 2.8125H30.9375V1.40625C30.9375 0.629985 30.3075 0 29.5313 0C28.7551 0 28.125 0.629985 28.125 1.40625V2.8125H14.0625V1.40625C14.0625 0.629985 13.4325 0 12.6562 0C11.88 0 11.25 0.629985 11.25 1.40625V2.8125H5.62499C2.51863 2.8125 0 5.33113 0 8.43749V39.3749C0 42.4813 2.51863 45 5.62499 45H36.5624C39.6688 45 42.1874 42.4814 42.1874 39.3749V8.43749C42.1874 5.33106 39.6689 2.8125 36.5625 2.8125ZM39.375 39.3749C39.375 40.9288 38.1164 42.1874 36.5625 42.1874H5.62499C4.07109 42.1874 2.8125 40.9274 2.8125 39.3749V14.0625H39.3749V39.3749H39.375ZM39.375 11.25H2.8125V8.43749C2.8125 6.88358 4.07109 5.62499 5.62499 5.62499H11.25V7.03124C11.25 7.8075 11.88 8.43749 12.6562 8.43749C13.4325 8.43749 14.0625 7.8075 14.0625 7.03124V5.62499H28.125V7.03124C28.125 7.8075 28.755 8.43749 29.5312 8.43749C30.3074 8.43749 30.9375 7.8075 30.9375 7.03124V5.62499H36.5625C38.1164 5.62499 39.375 6.88358 39.375 8.43749V11.25ZM19.6875 39.3749H22.5C24.0539 39.3749 25.3125 38.1163 25.3125 36.5624V33.75C25.3125 32.1961 24.0539 30.9375 22.5 30.9375H19.6875C18.135 30.9375 16.875 32.1961 16.875 33.75V36.5624C16.875 38.1163 18.1336 39.3749 19.6875 39.3749ZM19.6875 33.75H22.5V36.5624H19.6875V33.75ZM19.6875 28.125H22.5C24.0539 28.125 25.3125 26.8649 25.3125 25.3124V22.5C25.3125 20.9461 24.0539 19.6875 22.5 19.6875H19.6875C18.135 19.6875 16.875 20.9461 16.875 22.5V25.3124C16.875 26.8649 18.1336 28.125 19.6875 28.125ZM19.6875 22.5H22.5V25.3124H19.6875V22.5ZM8.43749 39.3749H11.25C12.8039 39.3749 14.0625 38.1163 14.0625 36.5624V33.75C14.0625 32.1961 12.8039 30.9375 11.25 30.9375H8.43749C6.88358 30.9375 5.62499 32.1961 5.62499 33.75V36.5624C5.62499 38.1163 6.88358 39.3749 8.43749 39.3749ZM8.43749 33.75H11.25V36.5624H8.43749V33.75Z" fill="#76DDB3"/>
</svg>
