<svg width="44" height="38" viewBox="0 0 44 38" fill="none" xmlns="http://www.w3.org/2000/svg">
<path d="M21.9648 37.364C21.6048 37.364 21.2448 37.229 20.9748 36.959L3.28983 19.184C1.08483 17.024 -0.0851683 13.964 0.00483173 10.769C0.184832 7.57396 1.66983 4.55896 4.09983 2.48896C6.12483 0.868957 8.55483 0.013957 11.1198 0.013957C14.2248 0.013957 17.2848 1.27396 19.4898 3.47896L21.9648 5.95396L24.4398 3.52396C28.7598 -0.796044 35.3748 -1.20104 39.8298 2.62396C42.2598 4.55896 43.7448 7.48396 43.9248 10.679C44.1048 13.874 42.8898 17.024 40.6398 19.274L22.9098 37.004C22.6848 37.229 22.3248 37.364 21.9648 37.364ZM11.1198 2.26396C9.04983 2.26396 7.11483 2.93896 5.49483 4.24396C3.55983 5.90896 2.34483 8.29396 2.20983 10.859C2.16483 13.424 3.10983 15.854 4.86483 17.564L21.9648 34.754L39.0648 17.654C40.8648 15.854 41.8098 13.289 41.6748 10.769C41.5398 8.24896 40.3698 5.90896 38.3898 4.33396C34.8348 1.27396 29.5248 1.58896 26.0148 5.09896L21.9648 9.10396L17.9148 5.05396C16.1598 3.25396 13.6398 2.26396 11.1198 2.26396Z" fill="#76DDB3"/>
</svg>
